<svg width="29" height="25" viewBox="0 0 29 25" fill="none" xmlns="http://www.w3.org/2000/svg">
<path d="M2.93415 3.03181C2.32095 3.645 1.83453 4.37297 1.50267 5.17415C1.17081 5.97533 1 6.83403 1 7.70122C1 8.56841 1.17081 9.42711 1.50267 10.2283C1.83453 11.0295 2.32095 11.7574 2.93415 12.3706L14.207 23.6435L25.4799 12.3706C26.7184 11.1322 27.4141 9.45259 27.4141 7.70122C27.4141 5.94985 26.7184 4.27021 25.4799 3.03181C24.2415 1.7934 22.5619 1.09767 20.8105 1.09767C19.0592 1.09767 17.3795 1.7934 16.1411 3.03181L14.207 4.9659L12.273 3.03181C11.6598 2.41861 10.9318 1.93219 10.1306 1.60033C9.32944 1.26846 8.47074 1.09766 7.60355 1.09766C6.73636 1.09766 5.87766 1.26846 5.07649 1.60033C4.27531 1.93219 3.54734 2.41861 2.93415 3.03181Z" fill="white" stroke="#5F6368" stroke-width="1.36625" stroke-linecap="round" stroke-linejoin="round"/>
</svg>
