<svg width="27" height="25" viewBox="0 0 27 25" fill="none" xmlns="http://www.w3.org/2000/svg">
<path d="M13.2962 23.4557L7.83123 17.9907H3.73249C3.00779 17.9907 2.31277 17.7028 1.80033 17.1903C1.28789 16.6779 1 15.9829 1 15.2582V4.3282C1 3.60349 1.28789 2.90847 1.80033 2.39603C2.31277 1.88359 3.00779 1.5957 3.73249 1.5957H22.8599C23.5846 1.5957 24.2796 1.88359 24.7921 2.39603C25.3045 2.90847 25.5924 3.60349 25.5924 4.3282V15.2582C25.5924 15.9829 25.3045 16.6779 24.7921 17.1903C24.2796 17.7028 23.5846 17.9907 22.8599 17.9907H18.7612L13.2962 23.4557Z" fill="white"/>
<path d="M6.46498 7.06069H20.1274M6.46498 12.5257H11.93M13.2962 23.4557L7.83123 17.9907H3.73249C3.00779 17.9907 2.31277 17.7028 1.80033 17.1903C1.28789 16.6779 1 15.9829 1 15.2582V4.3282C1 3.60349 1.28789 2.90847 1.80033 2.39603C2.31277 1.88359 3.00779 1.5957 3.73249 1.5957H22.8599C23.5846 1.5957 24.2796 1.88359 24.7921 2.39603C25.3045 2.90847 25.5924 3.60349 25.5924 4.3282V15.2582C25.5924 15.9829 25.3045 16.6779 24.7921 17.1903C24.2796 17.7028 23.5846 17.9907 22.8599 17.9907H18.7612L13.2962 23.4557Z" stroke="#5F6368" stroke-width="1.36625" stroke-linecap="round" stroke-linejoin="round"/>
</svg>
